<?xml version="1.0" encoding="UTF-8"?>
<!--Generator: Apple Native CoreSVG 175.5-->
<!DOCTYPE svg
PUBLIC "-//W3C//DTD SVG 1.1//EN"
       "http://www.w3.org/Graphics/SVG/1.1/DTD/svg11.dtd">
<svg version="1.1" xmlns="http://www.w3.org/2000/svg" xmlns:xlink="http://www.w3.org/1999/xlink" width="3300" height="2200">
 <!--glyph: "uni1007F0.medium", point size: 100.0, font version: "18.0d12e2", template writer version: "101"-->
 <style>.monochrome-0 {fill:#000000}

.SFSymbolsPreview000000 {fill:#000000;opacity:1.0}
</style>
 <g id="Notes">
  <rect height="2200" id="artboard" style="fill:white;opacity:1" width="3300" x="0" y="0"/>
  <line style="fill:none;stroke:black;opacity:1;stroke-width:0.5;" x1="263" x2="3036" y1="292" y2="292"/>
  <text style="stroke:none;fill:black;font-family:sans-serif;font-size:13;font-weight:bold;" transform="matrix(1 0 0 1 263 322)">Weight/Scale Variations</text>
  <text style="stroke:none;fill:black;font-family:sans-serif;font-size:13;text-anchor:middle;" transform="matrix(1 0 0 1 559.711 322)">Ultralight</text>
  <text style="stroke:none;fill:black;font-family:sans-serif;font-size:13;text-anchor:middle;" transform="matrix(1 0 0 1 856.422 322)">Thin</text>
  <text style="stroke:none;fill:black;font-family:sans-serif;font-size:13;text-anchor:middle;" transform="matrix(1 0 0 1 1153.13 322)">Light</text>
  <text style="stroke:none;fill:black;font-family:sans-serif;font-size:13;text-anchor:middle;" transform="matrix(1 0 0 1 1449.84 322)">Regular</text>
  <text style="stroke:none;fill:black;font-family:sans-serif;font-size:13;text-anchor:middle;" transform="matrix(1 0 0 1 1746.56 322)">Medium</text>
  <text style="stroke:none;fill:black;font-family:sans-serif;font-size:13;text-anchor:middle;" transform="matrix(1 0 0 1 2043.27 322)">Semibold</text>
  <text style="stroke:none;fill:black;font-family:sans-serif;font-size:13;text-anchor:middle;" transform="matrix(1 0 0 1 2339.98 322)">Bold</text>
  <text style="stroke:none;fill:black;font-family:sans-serif;font-size:13;text-anchor:middle;" transform="matrix(1 0 0 1 2636.69 322)">Heavy</text>
  <text style="stroke:none;fill:black;font-family:sans-serif;font-size:13;text-anchor:middle;" transform="matrix(1 0 0 1 2933.4 322)">Black</text>
  <line style="fill:none;stroke:black;opacity:1;stroke-width:0.5;" x1="263" x2="3036" y1="1903" y2="1903"/>
  <g transform="matrix(1 0 0 1 263 1933)">
   <path d="M9.24805 0.830078C13.5547 0.830078 17.1387-2.74414 17.1387-7.05078C17.1387-11.3574 13.5449-14.9316 9.23828-14.9316C4.94141-14.9316 1.36719-11.3574 1.36719-7.05078C1.36719-2.74414 4.95117 0.830078 9.24805 0.830078ZM9.24805-0.654297C5.70312-0.654297 2.87109-3.49609 2.87109-7.05078C2.87109-10.6055 5.69336-13.4473 9.23828-13.4473C12.793-13.4473 15.6445-10.6055 15.6445-7.05078C15.6445-3.49609 12.8027-0.654297 9.24805-0.654297ZM5.6543-7.05078C5.6543-6.62109 5.95703-6.32812 6.40625-6.32812L8.50586-6.32812L8.50586-4.20898C8.50586-3.76953 8.79883-3.4668 9.22852-3.4668C9.67773-3.4668 9.9707-3.76953 9.9707-4.20898L9.9707-6.32812L12.0898-6.32812C12.5293-6.32812 12.832-6.62109 12.832-7.05078C12.832-7.49023 12.5293-7.79297 12.0898-7.79297L9.9707-7.79297L9.9707-9.90234C9.9707-10.3516 9.67773-10.6543 9.22852-10.6543C8.79883-10.6543 8.50586-10.3516 8.50586-9.90234L8.50586-7.79297L6.40625-7.79297C5.95703-7.79297 5.6543-7.49023 5.6543-7.05078Z"/>
  </g>
  <g transform="matrix(1 0 0 1 281.867 1933)">
   <path d="M11.709 2.91016C17.1582 2.91016 21.6699-1.61133 21.6699-7.05078C21.6699-12.5 17.1484-17.0117 11.6992-17.0117C6.25977-17.0117 1.74805-12.5 1.74805-7.05078C1.74805-1.61133 6.26953 2.91016 11.709 2.91016ZM11.709 1.25C7.09961 1.25 3.41797-2.44141 3.41797-7.05078C3.41797-11.6602 7.08984-15.3516 11.6992-15.3516C16.3086-15.3516 20.0098-11.6602 20.0098-7.05078C20.0098-2.44141 16.3184 1.25 11.709 1.25ZM7.17773-7.05078C7.17773-6.57227 7.50977-6.25 8.00781-6.25L10.8789-6.25L10.8789-3.36914C10.8789-2.88086 11.2109-2.53906 11.6895-2.53906C12.1777-2.53906 12.5195-2.87109 12.5195-3.36914L12.5195-6.25L15.4004-6.25C15.8887-6.25 16.2305-6.57227 16.2305-7.05078C16.2305-7.53906 15.8887-7.88086 15.4004-7.88086L12.5195-7.88086L12.5195-10.752C12.5195-11.25 12.1777-11.5918 11.6895-11.5918C11.2109-11.5918 10.8789-11.25 10.8789-10.752L10.8789-7.88086L8.00781-7.88086C7.50977-7.88086 7.17773-7.53906 7.17773-7.05078Z"/>
  </g>
  <g transform="matrix(1 0 0 1 305.646 1933)">
   <path d="M14.9707 5.66406C21.9336 5.66406 27.6953-0.0976562 27.6953-7.05078C27.6953-14.0137 21.9238-19.7754 14.9609-19.7754C8.00781-19.7754 2.25586-14.0137 2.25586-7.05078C2.25586-0.0976562 8.01758 5.66406 14.9707 5.66406ZM14.9707 3.84766C8.93555 3.84766 4.08203-1.01562 4.08203-7.05078C4.08203-13.0957 8.92578-17.9492 14.9609-17.9492C21.0059-17.9492 25.8691-13.0957 25.8691-7.05078C25.8691-1.01562 21.0156 3.84766 14.9707 3.84766ZM9.19922-7.05078C9.19922-6.5332 9.57031-6.17188 10.1172-6.17188L14.0625-6.17188L14.0625-2.2168C14.0625-1.67969 14.4336-1.29883 14.9512-1.29883C15.4883-1.29883 15.8594-1.66992 15.8594-2.2168L15.8594-6.17188L19.8145-6.17188C20.3516-6.17188 20.7324-6.5332 20.7324-7.05078C20.7324-7.59766 20.3613-7.96875 19.8145-7.96875L15.8594-7.96875L15.8594-11.9141C15.8594-12.4609 15.4883-12.8418 14.9512-12.8418C14.4336-12.8418 14.0625-12.4609 14.0625-11.9141L14.0625-7.96875L10.1172-7.96875C9.57031-7.96875 9.19922-7.59766 9.19922-7.05078Z"/>
  </g>
  <text style="stroke:none;fill:black;font-family:sans-serif;font-size:13;font-weight:bold;" transform="matrix(1 0 0 1 263 1953)">Design Variations</text>
  <text style="stroke:none;fill:black;font-family:sans-serif;font-size:13;" transform="matrix(1 0 0 1 263 1971)">Symbols are supported in up to nine weights and three scales.</text>
  <text style="stroke:none;fill:black;font-family:sans-serif;font-size:13;" transform="matrix(1 0 0 1 263 1989)">For optimal layout with text and other symbols, vertically align</text>
  <text style="stroke:none;fill:black;font-family:sans-serif;font-size:13;" transform="matrix(1 0 0 1 263 2007)">symbols with the adjacent text.</text>
  <line style="fill:none;stroke:#00AEEF;stroke-width:0.5;opacity:1.0;" x1="776" x2="776" y1="1919" y2="1933"/>
  <g transform="matrix(1 0 0 1 776 1933)">
   <path d="M3.31055 0.15625C3.82812 0.15625 4.08203-0.0390625 4.26758-0.585938L5.52734-4.0332L11.2891-4.0332L12.5488-0.585938C12.7344-0.0390625 12.9883 0.15625 13.4961 0.15625C14.0137 0.15625 14.3457-0.15625 14.3457-0.644531C14.3457-0.810547 14.3164-0.966797 14.2383-1.17188L9.6582-13.3691C9.43359-13.9648 9.0332-14.2676 8.4082-14.2676C7.80273-14.2676 7.39258-13.9746 7.17773-13.3789L2.59766-1.16211C2.51953-0.957031 2.49023-0.800781 2.49023-0.634766C2.49023-0.146484 2.80273 0.15625 3.31055 0.15625ZM6.00586-5.51758L8.37891-12.0898L8.42773-12.0898L10.8008-5.51758Z"/>
  </g>
  <line style="fill:none;stroke:#00AEEF;stroke-width:0.5;opacity:1.0;" x1="793.197" x2="793.197" y1="1919" y2="1933"/>
  <text style="stroke:none;fill:black;font-family:sans-serif;font-size:13;font-weight:bold;" transform="matrix(1 0 0 1 776 1953)">Margins</text>
  <text style="stroke:none;fill:black;font-family:sans-serif;font-size:13;" transform="matrix(1 0 0 1 776 1971)">Leading and trailing margins on the left and right side of each symbol</text>
  <text style="stroke:none;fill:black;font-family:sans-serif;font-size:13;" transform="matrix(1 0 0 1 776 1989)">can be adjusted by modifying the x-location of the margin guidelines.</text>
  <text style="stroke:none;fill:black;font-family:sans-serif;font-size:13;" transform="matrix(1 0 0 1 776 2007)">Modifications are automatically applied proportionally to all</text>
  <text style="stroke:none;fill:black;font-family:sans-serif;font-size:13;" transform="matrix(1 0 0 1 776 2025)">scales and weights.</text>
  <g transform="matrix(1 0 0 1 1289 1933)">
   <path d="M2.8418 1.86523L4.54102 3.57422C5.40039 4.44336 6.38672 4.38477 7.31445 3.35938L18.0078-8.42773L17.041-9.4043L6.42578 2.27539C6.07422 2.67578 5.74219 2.77344 5.27344 2.30469L4.10156 1.14258C3.63281 0.683594 3.74023 0.341797 4.14062-0.0195312L15.6152-10.8203L14.6387-11.7871L3.04688-0.898438C2.06055 0.0195312 1.98242 0.996094 2.8418 1.86523ZM9.25781-16.3281C8.83789-15.918 8.80859-15.3418 9.04297-14.9512C9.27734-14.5898 9.73633-14.3555 10.3809-14.5215C11.8457-14.8633 13.3691-14.9219 14.7949-13.9844L14.209-12.5293C13.8672-11.6992 14.043-11.1133 14.5801-10.5664L16.875-8.25195C17.3633-7.76367 17.7734-7.74414 18.3398-7.8418L19.4043-8.03711L20.0684-7.36328L20.0293-6.80664C19.9902-6.30859 20.1172-5.92773 20.6055-5.44922L21.3672-4.70703C21.8457-4.22852 22.4609-4.19922 22.9297-4.66797L25.8398-7.58789C26.3086-8.05664 26.2891-8.65234 25.8105-9.13086L25.0391-9.89258C24.5605-10.3711 24.1895-10.5273 23.7109-10.4883L23.1348-10.4395L22.4902-11.0742L22.7344-12.1973C22.8613-12.7637 22.7051-13.2031 22.1191-13.7891L19.9219-15.9766C16.582-19.2969 12.1484-19.2188 9.25781-16.3281ZM10.752-15.957C13.1836-17.7344 16.4746-17.4316 18.7012-15.2051L21.1328-12.793C21.3672-12.5586 21.4062-12.373 21.3379-12.0312L21.0156-10.5469L22.5195-9.0625L23.5059-9.12109C23.7598-9.13086 23.8379-9.11133 24.0332-8.91602L24.6094-8.33984L22.168-5.89844L21.5918-6.47461C21.3965-6.66992 21.3672-6.74805 21.377-7.01172L21.4453-7.98828L19.9512-9.47266L18.4277-9.21875C18.1055-9.15039 17.959-9.17969 17.7148-9.41406L15.7129-11.416C15.459-11.6504 15.4297-11.8164 15.5859-12.1875L16.4648-14.2773C14.9023-15.7324 12.8711-16.3574 10.8398-15.7617C10.6836-15.7227 10.625-15.8496 10.752-15.957Z"/>
  </g>
  <text style="stroke:none;fill:black;font-family:sans-serif;font-size:13;font-weight:bold;" transform="matrix(1 0 0 1 1289 1953)">Exporting</text>
  <text style="stroke:none;fill:black;font-family:sans-serif;font-size:13;" transform="matrix(1 0 0 1 1289 1971)">Symbols should be outlined when exporting to ensure the</text>
  <text style="stroke:none;fill:black;font-family:sans-serif;font-size:13;" transform="matrix(1 0 0 1 1289 1989)">design is preserved when submitting to Xcode.</text>
  <text id="template-version" style="stroke:none;fill:black;font-family:sans-serif;font-size:13;text-anchor:end;" transform="matrix(1 0 0 1 3036 1933)">Template v.4.0</text>
  <text style="stroke:none;fill:black;font-family:sans-serif;font-size:13;text-anchor:end;" transform="matrix(1 0 0 1 3036 1951)">Requires Xcode 14 or greater</text>
  <text id="descriptive-name" style="stroke:none;fill:black;font-family:sans-serif;font-size:13;text-anchor:end;" transform="matrix(1 0 0 1 3036 1969)">Generated from hand.wave</text>
  <text style="stroke:none;fill:black;font-family:sans-serif;font-size:13;text-anchor:end;" transform="matrix(1 0 0 1 3036 1987)">Typeset at 100 points</text>
  <text style="stroke:none;fill:black;font-family:sans-serif;font-size:13;" transform="matrix(1 0 0 1 263 726)">Small</text>
  <text style="stroke:none;fill:black;font-family:sans-serif;font-size:13;" transform="matrix(1 0 0 1 263 1156)">Medium</text>
  <text style="stroke:none;fill:black;font-family:sans-serif;font-size:13;" transform="matrix(1 0 0 1 263 1586)">Large</text>
 </g>
 <g id="Guides">
  <g id="H-reference" style="fill:#27AAE1;stroke:none;" transform="matrix(1 0 0 1 339 696)">
   <path d="M0.993654 0L3.63775 0L29.3281-67.1323L30.0303-67.1323L30.0303-70.459L28.1226-70.459ZM11.6885-24.4799L46.9815-24.4799L46.2315-26.7285L12.4385-26.7285ZM55.1196 0L57.7637 0L30.6382-70.459L29.4326-70.459L29.4326-67.1323Z"/>
  </g>
  <line id="Baseline-S" style="fill:none;stroke:#27AAE1;opacity:1;stroke-width:0.5;" x1="263" x2="3036" y1="696" y2="696"/>
  <line id="Capline-S" style="fill:none;stroke:#27AAE1;opacity:1;stroke-width:0.5;" x1="263" x2="3036" y1="625.541" y2="625.541"/>
  <g id="H-reference" style="fill:#27AAE1;stroke:none;" transform="matrix(1 0 0 1 339 1126)">
   <path d="M0.993654 0L3.63775 0L29.3281-67.1323L30.0303-67.1323L30.0303-70.459L28.1226-70.459ZM11.6885-24.4799L46.9815-24.4799L46.2315-26.7285L12.4385-26.7285ZM55.1196 0L57.7637 0L30.6382-70.459L29.4326-70.459L29.4326-67.1323Z"/>
  </g>
  <line id="Baseline-M" style="fill:none;stroke:#27AAE1;opacity:1;stroke-width:0.5;" x1="263" x2="3036" y1="1126" y2="1126"/>
  <line id="Capline-M" style="fill:none;stroke:#27AAE1;opacity:1;stroke-width:0.5;" x1="263" x2="3036" y1="1055.54" y2="1055.54"/>
  <g id="H-reference" style="fill:#27AAE1;stroke:none;" transform="matrix(1 0 0 1 339 1556)">
   <path d="M0.993654 0L3.63775 0L29.3281-67.1323L30.0303-67.1323L30.0303-70.459L28.1226-70.459ZM11.6885-24.4799L46.9815-24.4799L46.2315-26.7285L12.4385-26.7285ZM55.1196 0L57.7637 0L30.6382-70.459L29.4326-70.459L29.4326-67.1323Z"/>
  </g>
  <line id="Baseline-L" style="fill:none;stroke:#27AAE1;opacity:1;stroke-width:0.5;" x1="263" x2="3036" y1="1556" y2="1556"/>
  <line id="Capline-L" style="fill:none;stroke:#27AAE1;opacity:1;stroke-width:0.5;" x1="263" x2="3036" y1="1485.54" y2="1485.54"/>
  <line id="left-margin-Ultralight-S" style="fill:none;stroke:#00AEEF;stroke-width:0.5;opacity:1.0;" x1="519.1" x2="519.1" y1="600.785" y2="720.121"/>
  <line id="right-margin-Ultralight-S" style="fill:none;stroke:#00AEEF;stroke-width:0.5;opacity:1.0;" x1="600.322" x2="600.322" y1="600.785" y2="720.121"/>
  <line id="left-margin-Regular-S" style="fill:none;stroke:#00AEEF;stroke-width:0.5;opacity:1.0;" x1="1405.53" x2="1405.53" y1="600.785" y2="720.121"/>
  <line id="right-margin-Regular-S" style="fill:none;stroke:#00AEEF;stroke-width:0.5;opacity:1.0;" x1="1494.16" x2="1494.16" y1="600.785" y2="720.121"/>
  <line id="left-margin-Black-S" style="fill:none;stroke:#00AEEF;stroke-width:0.5;opacity:1.0;" x1="2881.64" x2="2881.64" y1="600.785" y2="720.121"/>
  <line id="right-margin-Black-S" style="fill:none;stroke:#00AEEF;stroke-width:0.5;opacity:1.0;" x1="2985.16" x2="2985.16" y1="600.785" y2="720.121"/>
 </g>
 <g id="Symbols">
  <g id="Black-S" transform="matrix(1 0 0 1 2881.64 696)">
   <path class="monochrome-0 SFSymbolsPreview000000" d="M85.5957-1.2207C97.8027-13.4766 99.9512-28.3203 91.9922-45.166L82.8613-64.502C82.0312-66.3086 80.957-67.8223 79.7363-68.9941C75.6836-73.0957 69.3848-73.4863 64.9902-69.0918C62.8418-66.9434 61.6699-63.623 62.6465-60.7422L62.6465-60.5957C62.6953-60.498 62.6953-60.4492 62.6465-60.3516C62.5488-60.2539 62.4023-60.3027 62.3535-60.3516L45.6543-77.0996C41.0156-81.6895 34.4238-81.543 29.6387-76.7578C28.9551-76.0742 28.418-75.3418 27.8809-74.5117C24.0234-75.7812 20.0195-74.6582 16.7969-71.4355C13.7207-68.4082 12.6465-64.3066 13.7695-60.498C13.0859-60.0586 12.4512-59.5703 11.8652-58.9844C7.37305-54.4922 7.22656-48.1934 11.377-43.9941L11.6699-43.75C11.1328-43.3594 10.6445-43.0176 10.2051-42.5781C5.71289-38.0859 5.76172-31.3965 10.2051-26.9531L35.8887-1.26953C50.9766 13.7695 70.5566 13.7695 85.5957-1.2207ZM76.8066-9.57031C66.5527 0.683594 53.9551 0.683594 43.3105-9.91211L19.3359-33.9355C18.8965-34.3262 18.8965-34.9609 19.3359-35.4004C19.7266-35.791 20.3613-35.791 20.8008-35.4004L35.2051-20.9473C37.1094-19.043 40.1855-19.0918 42.0898-20.9961C43.9941-22.9004 43.9941-25.9277 42.0898-27.832L20.166-49.7559C19.7266-50.1465 19.7266-50.7812 20.166-51.1719C20.5566-51.6113 21.1914-51.6113 21.6309-51.1719L41.9922-30.8105C43.8965-28.9062 46.9727-28.9551 48.877-30.8594C50.7324-32.7637 50.7324-35.791 48.877-37.6953L24.707-61.8164C24.3164-62.2559 24.3164-62.8418 24.707-63.2812C25.1465-63.6719 25.7324-63.6719 26.1719-63.2812L48.4375-41.0156C50.3418-39.1113 53.418-39.1602 55.3223-41.0156C57.2266-42.9199 57.2266-45.9961 55.3223-47.9004L36.8164-66.4062C36.377-66.7969 36.377-67.3828 36.7676-67.8223C37.1582-68.2129 37.8418-68.2617 38.2324-67.8223L66.748-39.3555C69.2871-36.8164 72.5586-37.4023 74.5117-39.4531C76.0742-41.0645 76.9043-43.6035 75.9277-46.0938L70.9473-58.8867C70.6543-59.668 71.0938-60.2539 71.5332-60.4492C72.0703-60.5957 72.6562-60.498 72.9492-59.8633L81.6406-40.2344C87.1582-27.7344 85.9863-18.75 76.8066-9.57031Z"/>
  </g>
  <g id="Regular-S" transform="matrix(1 0 0 1 1405.53 696)">
   <path class="monochrome-0 SFSymbolsPreview000000" d="M73.0957-5.76172C82.8613-15.5273 84.4238-27.6367 77.6367-41.9434L69.1895-59.7656C68.5547-61.084 67.7734-62.1582 66.9434-62.9883C63.916-66.0156 59.5703-65.8203 56.6895-62.9883C54.7363-61.0352 54.1504-58.2031 55.4199-55.0781L57.4219-50.1953C57.4707-50.0488 57.4707-49.9023 57.373-49.8047C57.2266-49.6582 57.0801-49.707 56.9336-49.8535L36.0352-70.7031C32.8125-73.9746 28.6621-73.9746 25.4883-70.8008C24.3652-69.6777 23.7305-68.3105 23.6816-66.8945C20.4102-69.2871 16.8945-69.0918 14.1602-66.3574C11.5234-63.7207 11.3281-60.1074 13.5742-56.9336C12.2559-56.8848 10.9863-56.2988 10.0098-55.3223C7.08008-52.3926 7.17773-48.4375 10.2539-45.3613L13.0859-42.5293C11.6211-42.5781 10.1074-41.8457 8.93555-40.6738C6.00586-37.7441 6.15234-33.5938 9.27734-30.4688L32.7148-7.03125C45.459 5.71289 61.2793 6.10352 73.0957-5.76172ZM68.7012-9.86328C58.9844-0.146484 47.0215-0.78125 36.2305-11.5723L13.7695-34.0332C12.7441-35.0586 12.7441-36.4746 13.7695-37.4512C14.7461-38.4766 16.2109-38.4766 17.2363-37.5L31.2012-23.5352C32.2266-22.4609 33.9355-22.6074 34.9121-23.584C35.9375-24.6094 36.1328-26.3184 35.0586-27.3926L14.2578-48.1934C13.2324-49.2188 13.2324-50.6348 14.209-51.6113C15.2344-52.6367 16.6992-52.6367 17.7246-51.6602L37.1582-32.2266C38.1836-31.1523 39.8438-31.2988 40.8691-32.2754C41.8945-33.3496 42.041-35.0098 41.0156-36.084L18.1641-58.9355C17.1387-59.9609 17.1387-61.377 18.1152-62.4023C19.1406-63.3789 20.6055-63.3789 21.582-62.4023L44.4336-39.5508C45.5078-38.4766 47.168-38.623 48.1934-39.5996C49.2188-40.6738 49.3652-42.3828 48.3398-43.4082L28.9062-62.8418C27.8809-63.8184 27.8809-65.2832 28.8574-66.2598C29.8828-67.2852 31.3477-67.2852 32.3242-66.2598L59.1309-39.4531C60.5957-38.0371 62.2559-38.0371 63.4277-39.209C64.4531-40.2344 64.8926-41.5527 64.0625-43.7012L59.375-56.4453C58.7891-57.959 59.375-59.2285 60.5957-59.7656C61.9141-60.3516 63.0859-59.7656 63.8672-58.0566L72.6074-39.502C78.7598-26.4648 76.2207-17.3828 68.7012-9.86328Z"/>
  </g>
  <g id="Ultralight-S" transform="matrix(1 0 0 1 519.1 696)">
   <path class="monochrome-0 SFSymbolsPreview000000" d="M66.7383-8.62254C75.1417-17.0259 76.6588-27.6821 71.2339-38.9917L61.7877-58.6758C61.3799-59.5855 60.8257-60.3418 60.1773-60.9903C57.9673-63.2002 54.6661-63.1865 52.3755-60.8994C50.8311-59.355 50.336-56.8408 51.5601-54.0337L56.5137-42.5665C56.6079-42.3292 56.5625-42.1827 56.4649-42.0396C56.3184-41.9385 56.1719-41.942 56.0254-42.0884L30.6314-67.479C27.9082-70.2056 24.666-70.1602 22.4004-67.8946C21.2774-66.8169 20.688-65.3589 20.8208-63.7613C18.2305-66.2447 14.8965-66.6397 12.4346-64.1778C9.9795-61.7227 10.2383-58.1094 12.666-55.5713C11.0298-55.7495 9.62403-55.1182 8.51124-54.0054C6.2627-51.7568 6.22413-48.5283 8.93702-45.8154L12.8135-41.939C11.167-42.124 9.74414-41.437 8.61768-40.3105C6.36914-38.062 6.37939-34.8652 9.0957-32.1489L31.5342-9.71043C43.7788 2.57961 57.1016 1.01762 66.7383-8.62254ZM65.25-10.0449C56.396-1.19091 44.2515-0.00928342 33.0064-11.2544L10.6363-33.6245C8.8389-35.4219 8.52103-37.4736 10.1822-39.1313C11.7945-40.7471 14.0767-40.6562 15.874-38.8623L29.0215-25.7148C29.7744-24.9585 30.3936-25.0596 30.7798-25.4458C31.1695-25.8354 31.274-26.4546 30.5176-27.2109L10.4434-47.2398C8.64603-49.0371 8.37357-51.1343 9.98587-52.7466C11.6016-54.3623 13.8838-54.2715 15.6812-52.4775L34.3428-33.8159C35.0957-33.0596 35.7569-33.1606 36.1465-33.5469C36.5362-33.9399 36.5918-34.5557 35.8843-35.312L14.2134-56.9829C12.4161-58.7803 12.189-61.1953 13.8013-62.811C15.3262-64.3325 17.6084-64.0146 19.4024-62.2207L41.1187-40.5044C41.648-39.9751 42.3091-39.7129 42.835-40.2808C43.3609-40.7646 43.1441-41.4746 42.6182-42.0005L23.9112-60.7075C22.1138-62.5015 22.023-64.7837 23.6353-66.396C25.2964-68.0117 27.3516-67.7393 29.1455-65.9419L54.9986-40.0889C55.9639-39.1269 57.2154-39.2632 58.024-40.1172C58.7769-40.8701 58.9893-41.7798 58.5225-42.9292L53.4263-54.856C52.3863-57.2778 52.9722-59.2739 54.8741-60.1743C56.8736-61.1235 58.772-60.1289 59.8257-57.7842L69.2925-38.1397C74.2642-27.8271 72.9058-17.7007 65.25-10.0449Z"/>
  </g>
 </g>
</svg>
